<?xml version="1.0" standalone="no"?>
<!DOCTYPE svg PUBLIC "-//W3C//DTD SVG 20010904//EN"
 "http://www.w3.org/TR/2001/REC-SVG-20010904/DTD/svg10.dtd">
<svg version="1.0" xmlns="http://www.w3.org/2000/svg"
 width="258.000000pt" height="108.000000pt" viewBox="0 0 258.000000 108.000000"
 preserveAspectRatio="xMidYMid meet">

<g transform="translate(0.000000,108.000000) scale(0.100000,-0.100000)"
fill="#000000" stroke="none">
<path d="M0 540 l0 -540 1290 0 1290 0 0 540 0 540 -1290 0 -1290 0 0 -540z
m470 360 c25 -25 25 -51 1 -81 -15 -18 -22 -21 -31 -12 -10 9 -9 17 4 34 56
80 -37 94 -114 17 -63 -64 -92 -129 -98 -219 -5 -83 11 -132 48 -144 36 -11
87 33 115 98 l15 37 -44 0 c-94 0 -48 41 49 44 40 1 50 -2 53 -16 2 -11 -3
-18 -11 -18 -8 0 -17 -13 -20 -30 -8 -37 -93 -126 -130 -135 -38 -10 -95 13
-121 48 -30 41 -29 153 2 222 60 131 219 218 282 155z m401 -140 c25 -14 24
-21 -12 -79 -16 -28 -34 -65 -39 -83 l-9 -33 27 35 c49 63 114 129 133 135 10
4 28 4 39 0 19 -6 18 -10 -16 -76 -20 -39 -34 -72 -31 -75 2 -3 21 17 41 45
49 67 101 111 131 111 32 0 31 -13 -4 -91 -43 -97 -46 -118 -19 -128 20 -8 21
-10 6 -16 -9 -4 -27 -5 -40 -3 -19 2 -23 10 -26 45 -2 27 4 60 17 89 26 57 26
57 1 44 -11 -6 -49 -49 -84 -95 -55 -74 -65 -83 -77 -69 -17 20 1 93 37 147
16 25 20 37 11 37 -17 0 -73 -60 -130 -138 -43 -59 -47 -62 -57 -41 -7 12 -9
36 -5 58 6 34 74 191 82 191 2 0 13 -5 24 -10z m430 0 c25 -14 24 -21 -12 -79
-16 -28 -34 -65 -39 -83 l-9 -33 27 35 c49 63 114 129 133 135 10 4 28 4 39 0
19 -6 18 -10 -16 -77 -19 -38 -33 -72 -31 -74 3 -3 21 17 41 45 49 67 101 111
131 111 32 0 31 -13 -4 -91 -43 -97 -46 -118 -19 -128 20 -8 21 -10 6 -16 -9
-4 -27 -5 -40 -3 -19 2 -23 10 -26 45 -2 27 4 60 17 89 26 57 26 57 1 44 -11
-6 -49 -49 -84 -95 -55 -74 -65 -83 -77 -69 -17 20 1 93 37 147 17 26 20 37
10 37 -16 0 -76 -64 -125 -131 -72 -101 -89 -15 -25 122 20 43 39 79 41 79 2
0 13 -5 24 -10z m-650 -17 c12 -14 12 -17 -1 -21 -24 -8 -82 -73 -96 -109 -18
-43 -18 -83 0 -83 20 0 57 46 101 127 46 82 41 77 59 70 12 -5 10 -16 -10 -72
-13 -36 -24 -86 -24 -110 0 -33 -4 -45 -15 -45 -24 0 -35 33 -25 71 16 55 12
56 -25 3 -42 -60 -77 -83 -99 -65 -41 34 -17 139 48 206 46 48 66 55 87 28z
m1127 5 c16 -16 15 -28 -2 -28 -21 0 -93 -86 -106 -127 -7 -19 -10 -42 -7 -52
3 -13 -1 -18 -17 -17 -51 3 -23 126 45 195 40 42 66 50 87 29z m66 -26 c3 -5
-4 -33 -16 -63 -11 -30 -22 -76 -23 -104 -3 -41 -7 -50 -22 -50 -15 0 -18 8
-17 55 1 45 0 52 -10 36 -24 -39 -48 -66 -59 -66 -8 0 -9 3 -1 8 6 4 24 26 41
49 17 23 34 39 38 35 5 -4 5 -2 2 4 -7 13 40 104 53 104 5 0 11 -4 14 -8z
m131 -54 c31 -45 58 -156 52 -218 -6 -73 -47 -163 -95 -213 -42 -43 -76 -48
-116 -16 -35 28 -34 76 3 154 35 76 83 119 123 111 22 -4 28 -2 28 12 0 13
-32 85 -68 153 -5 10 28 39 43 39 8 0 21 -10 30 -22z m503 -181 c24 -22 28
-47 12 -78 -15 -27 -28 -24 -22 6 3 18 0 25 -11 25 -20 0 -32 -23 -40 -72 -5
-33 -3 -38 14 -38 23 0 26 -17 3 -22 -11 -2 -18 -15 -19 -35 -5 -65 -58 -112
-109 -99 -14 3 -30 15 -36 26 -22 42 40 120 96 120 14 0 15 6 8 38 -16 72 -10
103 25 134 33 30 40 29 79 -5z m-1233 -11 c17 -12 17 -16 -16 -72 -34 -59 -51
-94 -45 -94 1 0 24 27 50 60 51 67 97 100 127 93 31 -9 31 -19 -1 -85 l-31
-63 27 35 c48 61 114 120 133 120 41 0 42 -23 6 -106 -41 -94 -44 -121 -12
-126 l22 -3 -23 -14 c-13 -7 -35 -10 -48 -7 -35 9 -41 50 -17 119 11 32 16 56
10 54 -10 -3 -75 -83 -120 -147 -14 -20 -20 -23 -35 -14 -23 16 -20 59 9 120
13 27 25 54 27 59 12 27 -75 -69 -115 -127 -38 -56 -49 -66 -61 -56 -24 20
-10 105 31 192 37 77 49 87 82 62z m491 -13 c29 -24 34 -34 34 -71 0 -123
-139 -232 -199 -156 -42 53 -11 168 59 228 40 33 63 33 106 -1z m475 -4 c6
-13 6 -19 0 -19 -19 0 -82 -63 -102 -101 -20 -40 -26 -89 -9 -89 13 0 72 80
106 145 22 42 34 55 49 53 24 -4 23 -13 -6 -93 -13 -39 -19 -73 -16 -97 5 -36
4 -38 -24 -38 -27 0 -29 2 -29 40 l0 40 -45 -46 c-42 -45 -45 -46 -67 -32 -51
34 -24 162 49 229 45 42 74 45 94 8z"/>
<path d="M1920 404 c-50 -55 -84 -126 -76 -160 19 -75 107 43 130 174 3 17 2
32 -3 32 -5 0 -27 -21 -51 -46z"/>
<path d="M2337 262 c-26 -27 -36 -62 -18 -62 13 0 61 59 61 76 0 21 -13 17
-43 -14z"/>
<path d="M1675 409 c-20 -18 -42 -44 -50 -58 -19 -37 -27 -93 -16 -110 15 -22
76 22 100 73 21 43 29 126 11 126 -5 0 -25 -14 -45 -31z"/>
</g>
</svg>
