<?xml version="1.0" encoding="UTF-8"?>
<svg version="1.1" xmlns="http://www.w3.org/2000/svg" width="2000" height="2000">
<path d="M0 0 C2.13947538 -0.00651488 4.2788755 -0.01796232 6.41832352 -0.03044128 C30.57907497 -0.15251394 54.56998546 1.18268858 78.36726761 5.68086243 C79.50937698 5.89178528 80.65148636 6.10270813 81.82820511 6.32002258 C92.70840599 8.39872317 103.35160547 11.09036571 113.92976761 14.36836243 C115.17282669 14.75048889 115.17282669 14.75048889 116.44099808 15.14033508 C143.16158397 23.51513062 168.11802157 36.55774582 188.92976761 55.36836243 C190.21367386 56.45504211 190.21367386 56.45504211 191.52351761 57.56367493 C222.85765829 84.43567532 238.22971655 125.04709502 241.61726761 165.36836243 C245.66956683 238.39417134 215.96526264 298.59985143 168.48689651 351.99092102 C164.39841058 356.54397621 160.18053289 360.96697948 155.92976761 365.36836243 C155.1585054 366.16826599 155.1585054 366.16826599 154.37166214 366.98432922 C150.71229591 370.77532356 147.0336898 374.54655879 143.33699417 378.30116272 C142.0703843 379.59099864 140.80796804 380.88496672 139.5498848 382.18312073 C137.76157392 384.02551358 135.95736488 385.85084365 134.14851761 387.67304993 C133.61142166 388.23276489 133.07432571 388.79247986 132.52095413 389.36915588 C129.13203613 392.73966593 126.748596 394.26727383 121.92976761 394.36836243 C119.66658401 393.89033508 119.66658401 393.89033508 117.53133011 393.03242493 C116.73017776 392.71475159 115.92902542 392.39707825 115.10359573 392.06977844 C114.26248245 391.71456116 113.42136917 391.35934387 112.55476761 390.99336243 C111.67498245 390.62976624 110.7951973 390.26617004 109.88875198 389.89155579 C92.45132979 382.50460732 77.68120074 372.40357509 63.92976761 359.36836243 C63.4283223 358.90478333 62.92687698 358.44120422 62.41023636 357.96357727 C46.48503947 343.18627323 35.50082399 325.45942545 28.49226761 304.93086243 C28.24500931 304.20979309 27.99775101 303.48872375 27.74300003 302.74580383 C26.15097024 297.80557011 24.54486023 292.60245584 24.92976761 287.36836243 C26.74617386 284.90742493 26.74617386 284.90742493 29.49226761 282.99336243 C30.50804886 282.24957336 31.52383011 281.5057843 32.57039261 280.73945618 C33.39313675 280.16300354 33.39313675 280.16300354 34.23250198 279.5749054 C37.14729745 277.50285142 39.93673398 275.27235204 42.74226761 273.05586243 C43.33088577 272.59494202 43.91950394 272.13402161 44.52595901 271.65913391 C83.46809212 241.06777251 115.83818367 205.91786609 124.24226761 155.49336243 C127.05920909 130.30498281 126.88355641 104.28656593 111.30476761 83.18086243 C103.92904482 74.44238705 94.579639 68.35280666 83.92976761 64.36836243 C82.99261917 64.01129211 82.05547073 63.6542218 81.08992386 63.28633118 C55.38510179 54.45340004 26.32284415 55.66137701 -0.07023239 60.36836243 C-0.94357224 60.52401672 -1.81691208 60.67967102 -2.71671677 60.84004211 C-28.27656703 65.61464502 -52.86027436 74.802883 -76.07023239 86.36836243 C-77.03509567 86.84531555 -77.99995895 87.32226868 -78.99406052 87.81367493 C-116.0626694 106.26165859 -150.07316568 130.72436558 -181.28947067 157.83027649 C-183.12275626 159.41372853 -184.96763033 160.98262589 -186.81632614 162.54804993 C-194.84668405 169.34624151 -194.84668405 169.34624151 -202.38262558 176.68170166 C-204.11943024 178.4175327 -205.92877686 180.00905169 -207.79459763 181.60493469 C-211.89636659 185.17218689 -215.76881421 188.92193452 -219.60538864 192.77070618 C-220.28774078 193.45210159 -220.97009293 194.13349701 -221.67312241 194.83554077 C-223.10367676 196.26541984 -224.53299006 197.69654154 -225.96110153 199.12886047 C-228.12722313 201.30033954 -230.29863413 203.46642568 -232.47062302 205.6320343 C-233.87003226 207.03210445 -235.26913123 208.43248481 -236.66788864 209.83320618 C-237.30662415 210.46991745 -237.94535965 211.10662872 -238.60345078 211.76263428 C-242.38677637 215.56537283 -245.98762342 219.4786183 -249.48565292 223.54566956 C-252.05564357 226.5018505 -254.75767136 229.33201482 -257.44523239 232.18086243 C-262.16896348 237.22402061 -266.6385753 242.39527218 -270.96085739 247.79023743 C-273.09008385 250.39262532 -275.30472596 252.88411745 -277.57023239 255.36836243 C-281.79305062 260.01273566 -285.76620895 264.82228034 -289.71281052 269.70185852 C-291.26396175 271.60620354 -292.83012168 273.49759374 -294.39835739 275.38789368 C-300.95866457 283.29850905 -307.4103913 291.25576377 -313.61368942 299.45088196 C-315.32941551 301.70956662 -317.05711967 303.9588648 -318.78507614 306.20820618 C-346.30887738 342.08988111 -371.72059468 379.56536767 -394.48527145 418.64814758 C-395.51029862 420.40736704 -396.53810776 422.16496977 -397.56925583 423.92060852 C-405.98832677 438.26452331 -413.69960804 452.94973573 -421.23722458 467.76972961 C-422.95386071 471.14452381 -424.6878327 474.51024832 -426.42179489 477.87617493 C-467.40584098 557.99289534 -492.98448862 645.7210507 -519.07023239 846.36836243 C-519.12431259 847.17266693 -519.17839279 847.97697144 -519.23411179 848.8056488 C-520.41197759 866.65522542 -520.29216252 884.55646106 -520.31046677 902.43647766 C-520.31482301 906.07264901 -520.32863037 909.70857929 -520.35148239 913.34468079 C-520.46785419 932.27382829 -520.31797809 951.08752533 -518.69913864 969.95820618 C-518.63772438 970.67512697 -518.57631012 971.39204777 -518.51303482 972.13069344 C-511.52799258 1051.50408561 -487.32254621 1135.42849654 -434.07023239 1196.36836243 C-433.34706833 1197.21527649 -432.62390427 1198.06219055 -431.87882614 1198.93476868 C-427.6039103 1203.87894727 -423.08000927 1208.18187056 -418.07023239 1212.36836243 C-416.77859177 1213.50918274 -416.77859177 1213.50918274 -415.46085739 1214.67304993 C-395.2046447 1232.2466831 -364.72553858 1249.88712595 -337.00773239 1248.14570618 C-330.52326196 1247.47621486 -324.59648458 1245.65352654 -318.44523239 1243.55586243 C-317.28096725 1243.16277893 -316.11670212 1242.76969543 -314.91715622 1242.36470032 C-280.78265171 1230.45345656 -249.79127692 1210.4706544 -222.67228317 1186.75996399 C-220.93066796 1185.24713151 -219.17224448 1183.75563166 -217.41007614 1182.26679993 C-211.95850529 1177.65283465 -206.57926743 1173.06554233 -201.61710739 1167.91914368 C-199.96388017 1166.26174164 -198.22948661 1164.75850392 -196.44523239 1163.24336243 C-188.39862023 1156.29472854 -180.81055703 1148.61858997 -173.93351364 1140.51289368 C-171.92957046 1138.20646851 -169.85754167 1135.975953 -167.77164841 1133.74385071 C-161.92977591 1127.48851441 -156.40924709 1121.06232036 -151.07023239 1114.36836243 C-150.16096609 1113.25045049 -149.2507608 1112.13330183 -148.33976364 1111.01679993 C-122.3994929 1079.11174723 -99.91185804 1044.40613394 -80.56144333 1008.15400696 C-79.10070983 1005.42529555 -77.62138402 1002.70729552 -76.14054489 999.98945618 C-51.84633645 954.94545853 -33.93858858 905.34509275 -28.07023239 854.36836243 C-29.48310028 854.73242188 -29.48310028 854.73242188 -30.92451096 855.10383606 C-41.37823657 857.7719896 -51.88086573 860.1151057 -62.43741989 862.33711243 C-64.16831751 862.70290135 -65.89920305 863.0687474 -67.63007736 863.43464661 C-71.23824759 864.1965027 -74.84694585 864.95579913 -78.45597458 865.71357727 C-82.0985754 866.47879144 -85.74012976 867.24870345 -89.38077927 868.02314758 C-109.86901677 872.38044876 -130.2920207 876.61255817 -151.07023239 879.36836243 C-152.39100533 879.54468956 -152.39100533 879.54468956 -153.73846054 879.72457886 C-178.16533079 882.92623533 -205.98346792 884.14482631 -230.07023239 878.36836243 C-230.91215134 878.16968567 -231.75407028 877.97100891 -232.62150192 877.76631165 C-266.03118732 869.6138843 -297.33300436 851.38579955 -315.92765427 821.727005 C-330.07023239 798.37955922 -330.07023239 798.37955922 -330.07023239 789.36836243 C-299.74032187 774.07057298 -268.36191665 762.75368288 -236.07023239 752.36836243 C-235.31415695 752.12450806 -234.55808151 751.88065369 -233.7790947 751.62940979 C-143.36933551 722.50696551 -49.38140423 700.91622922 44.92976761 689.36836243 C45.68026382 689.27641602 46.43076004 689.1844696 47.20399857 689.08973694 C64.07320521 687.05080862 80.88031652 686.0797365 97.86726761 685.93086243 C98.64470322 685.91855591 99.42213882 685.90624939 100.22313309 685.89356995 C121.93732033 685.60409752 141.76124751 690.549111 158.92976761 704.36836243 C159.55109573 704.82597961 160.17242386 705.2835968 160.81258011 705.75508118 C181.799954 722.00809398 190.06613414 750.33174984 193.52400589 775.39546204 C194.2880702 782.87658023 194.27464259 790.35475385 194.24226761 797.86836243 C194.24110947 798.70097595 194.23995132 799.53358948 194.23875809 800.39143372 C194.19254008 817.21801762 193.09194125 833.26322519 187.92976761 849.36836243 C182.5075796 848.38996162 177.08758113 847.40327298 171.67586136 846.36836243 C151.71107535 842.58017226 132.242303 840.97551719 111.92976761 840.36836243 C111.88730911 841.1603302 111.84485062 841.95229797 111.8011055 842.76826477 C111.29465567 850.70869543 110.14947443 858.24509189 108.36726761 865.99336243 C108.10405716 867.15142395 107.84084671 868.30948547 107.56966019 869.50263977 C100.48149608 899.90394602 90.01196316 929.05884364 76.92976761 957.36836243 C76.44604691 958.41556458 75.9623262 959.46276672 75.4639473 960.54170227 C64.38746744 984.36527297 51.59702706 1006.95940681 37.82136917 1029.30049133 C36.23382523 1031.87523026 34.65411132 1034.4544657 33.07820511 1037.03633118 C26.72312021 1047.39257954 19.87700134 1057.40224392 12.92976761 1067.36836243 C12.50228226 1067.98388977 12.07479691 1068.59941711 11.63435745 1069.2335968 C0.2556568 1085.57272161 -12.00144663 1101.30152743 -24.66544724 1116.65937805 C-25.9714964 1118.24824565 -27.2655132 1119.84698296 -28.55851364 1121.44648743 C-32.8789934 1126.78925687 -37.33491149 1131.96357895 -41.96085739 1137.04414368 C-43.81649896 1139.08878577 -45.63779616 1141.15620392 -47.44523239 1143.24336243 C-62.38747111 1160.36396853 -77.87555969 1177.92932401 -95.17570114 1192.69258118 C-97.2282517 1194.5081362 -99.14769245 1196.41595779 -101.07023239 1198.36836243 C-104.24139269 1201.58270973 -107.52605992 1204.58587206 -110.94913864 1207.52851868 C-113.29514298 1209.56345061 -115.5875969 1211.65127209 -117.88273239 1213.74336243 C-122.12464089 1217.56750721 -126.47574336 1221.21725698 -130.91788864 1224.80586243 C-133.2588312 1226.69857155 -135.57272451 1228.62086418 -137.87882614 1230.55586243 C-147.55601805 1238.65347947 -157.49687535 1246.27608624 -167.7235527 1253.66572571 C-169.99272009 1255.31212327 -172.24787905 1256.97598592 -174.49991989 1258.64570618 C-192.50151217 1271.92905823 -211.49525145 1283.56169105 -231.07023239 1294.36836243 C-231.88185837 1294.82275696 -232.69348434 1295.27715149 -233.52970505 1295.74531555 C-258.02772117 1309.40171917 -284.16341759 1319.57620281 -311.07023239 1327.36836243 C-311.71508591 1327.56309143 -312.35993942 1327.75782043 -313.02433395 1327.95845032 C-318.26595815 1329.00865163 -323.80273989 1328.56426985 -329.13273239 1328.55586243 C-329.83595627 1328.55525818 -330.53918015 1328.55465393 -331.26371384 1328.55403137 C-418.76886922 1328.35264426 -514.94987403 1313.12205513 -634.07023239 1224.36836243 C-636.52953164 1221.79467716 -638.79750619 1219.10640972 -641.07023239 1216.36836243 C-641.93648239 1215.38996399 -642.80273239 1214.41156555 -643.69523239 1213.40351868 C-656.52186209 1198.89226097 -667.3971626 1183.12890098 -677.07023239 1166.36836243 C-677.5534697 1165.53353333 -678.036707 1164.69870422 -678.53458786 1163.83857727 C-715.1801545 1099.98012972 -729.73466207 1026.23678532 -735.87882614 953.62684631 C-736.00159105 952.17829089 -736.12640795 950.72990706 -736.25382614 949.28175354 C-740.62746451 899.54832192 -739.72216851 848.03274191 -735.07023239 798.36836243 C-734.94294754 796.99916656 -734.94294754 796.99916656 -734.81309128 795.60231018 C-726.64598278 708.7981017 -705.63548615 623.85485187 -648.57902145 487.52119446 C-647.07130057 484.37059454 -645.58102326 481.21221491 -644.09366989 478.05195618 C-633.25244753 455.11289492 -621.53586354 432.7842552 -608.59220505 410.96308899 C-606.47974949 407.36168095 -604.46167393 403.71152948 -602.44523239 400.05586243 C-583.82591865 366.68178071 -561.14442377 334.93932414 -537.85929489 304.69648743 C-536.3386769 302.71769196 -534.82631761 300.73322047 -533.32023239 298.74336243 C-520.66516714 282.09196077 -507.11976007 266.05847832 -493.06241989 250.57539368 C-491.30829858 248.63210242 -489.59050545 246.66476795 -487.88273239 244.68086243 C-477.39602057 232.68475953 -466.2054274 221.34089887 -454.92716599 210.09492493 C-452.67289068 207.84607448 -450.42409863 205.59183794 -448.17570114 203.33711243 C-446.71638669 201.87845791 -445.25676254 200.42011316 -443.79679489 198.96211243 C-443.13829544 198.30158875 -442.47979599 197.64106506 -441.80134201 196.96052551 C-437.94744306 193.12576004 -433.98655743 189.47063908 -429.86483383 185.92485046 C-427.09351687 183.52124061 -424.43295561 181.00265087 -421.75773239 178.49336243 C-416.94133438 174.01291097 -412.00170261 169.7587799 -406.87101364 165.63789368 C-404.3433713 163.58969256 -401.8609396 161.50127789 -399.38859177 159.3874054 C-392.11030579 153.16599627 -384.64752655 147.2202224 -377.07023239 141.36836243 C-376.29115524 140.76330872 -375.51207809 140.158255 -374.70939255 139.53486633 C-363.18007437 130.59089691 -351.4913586 122.0026604 -339.35685349 113.8976593 C-337.1052747 112.39179879 -334.86240943 110.87370223 -332.62101364 109.35273743 C-305.20638418 90.8179653 -276.64099389 74.20878612 -247.07023239 59.36836243 C-245.96808395 58.81261536 -244.86593552 58.25686829 -243.73038864 57.6842804 C-187.60052725 29.52844444 -126.36537825 11.15525566 -64.07023239 3.36836243 C-62.97968552 3.21883118 -61.88913864 3.06929993 -60.76554489 2.91523743 C-40.57405685 0.21060392 -20.33494835 0.05030308 0 0 Z " fill="#FF5EC4" transform="translate(1268.0702323913574,343.6316375732422)"/>
</svg>
